<svg width="640" height="480" xmlns="http://www.w3.org/2000/svg" xmlns:svg="http://www.w3.org/2000/svg" xmlns:xlink="http://www.w3.org/1999/xlink">
 <title>Australia Perth Location Map</title>
 <defs>
  <symbol viewBox="0 0 595.28 595.28" y="0px" x="0px" id="svg_2" xmlns:xlink="http://www.w3.org/1999/xlink" xmlns="http://www.w3.org/2000/svg">
   <style type="text/css">.st0{fill:#F321B6;}
	.st1{fill:#EB1FA7;}
	.st2{fill:#0354C0;}
	.st3{fill:#0054C1;}</style>
   <path d="m471.14,-152.86" class="st0"/>
   <g>
    <path d="m382.43,320.36c-0.04,0.2 -0.03,0.4 0.02,0.6c-3.18,5.87 -6.82,11.47 -11.56,16.16c-12.02,11.88 -26.33,17.62 -43.41,15.36c-12.76,-1.69 -23.6,-7.3 -31.28,-17.55c-15.07,-20.11 -17.79,-42.52 -10.71,-66.35c2.44,-8.22 6.84,-15.49 11.31,-22.71c0,0 0.05,-0.04 0.05,-0.04c0.35,-0.03 0.52,-0.21 0.49,-0.57c0,0 0.07,-0.14 0.07,-0.14c0.38,-0.32 0.83,-0.59 1.12,-0.98c8.47,-11.34 19.3,-19.67 32.44,-24.87c18.74,-7.42 37.27,-7.41 55.44,2.04c1.63,0.85 2.63,1.95 2.68,3.74c0.12,4.7 0.27,9.38 -0.2,14.09c-0.5,5.01 -2.06,9.77 -2.84,14.7c0,0 0.03,0.01 0.03,0.01c-0.77,0.63 -0.87,1.59 -1.2,2.44c-3.93,10.01 -9.25,19.2 -16.73,26.99c-18.48,19.27 -41.39,28.36 -67.84,29.21c-3.37,0.11 -6.77,-0.27 -10.12,0.47c-0.88,0.19 -2.08,0.04 -2.2,1.22c-0.12,1.23 1.04,1.68 2,1.98c0.76,0.24 1.62,0.35 2.41,0.25c14.17,-1.71 27.96,0.25 41.62,3.96c12.07,3.28 24.25,4.79 36.74,2.49c3.92,-0.74 7.64,-2.36 11.67,-2.5z" class="st1"/>
    <path d="m303.78,212.43c0,0 -0.21,-0.05 -0.21,-0.05c-2.37,0.54 -4.71,1.24 -7.11,1.6c-13.44,2.06 -24.33,-2.71 -33.31,-12.53c0,0 0.01,0 0.01,0c-1.67,-2.85 -3.34,-5.69 -5.01,-8.54c0,0 0.01,0.01 0.01,0.01c-2.22,-6.58 -3.35,-13.24 -1.99,-20.2c2.51,-12.88 9.84,-22.08 21.89,-26.85c12.25,-4.85 24.12,-3.02 34.43,5.3c18.21,14.69 17.7,41.77 -0.72,56.23c-2.51,1.98 -5.6,2.92 -7.99,5.03z" class="st2"/>
    <path d="m192.22,234.4c-0.12,-10.89 2.66,-20.65 7.13,-30.02c0.74,-1.56 1.92,-2.27 3.4,-2.83c15.74,-6.05 30.88,-4.14 45.27,3.98c17.05,9.62 28.88,23.89 36.03,42.08c0.65,1.66 0.65,3 -0.21,4.63c-10.68,20.22 -12.67,41.19 -5.3,62.94c1.2,3.54 1.16,3.75 -2.46,3.4c-18.73,-1.79 -35.67,-8.33 -50.43,-19.98c-17.38,-13.71 -28.47,-31.42 -32.47,-53.33c-0.68,-3.71 -1.1,-7.49 -0.96,-10.87z" class="st3"/>
    <path d="m208.96,337.42c-1.74,-3.52 -4.75,-6.11 -6.79,-9.4c-2.17,-3.49 -1.98,-3.78 2.11,-4.11c6.45,-0.52 12.55,-2.86 18.93,-3.82c11.33,-1.7 22.63,-1.75 33.89,0.56c7.61,1.57 15.2,3.32 23.04,3.29c1.39,-0.01 2.33,0.47 2.91,1.78c0.37,0.84 0.75,1.8 1.42,2.34c3.31,2.68 2.16,5.11 -0.21,7.59c-8.46,8.85 -18.56,14.76 -30.72,16.75c-16.34,2.67 -30.22,-2.65 -42.34,-13.4c-0.68,-0.6 -1.21,-1.42 -2.22,-1.56c0,0 -0.14,0.12 -0.14,0.12l0.12,-0.14z" class="st1"/>
   </g>
   <g>
    <path d="m147.62,401.62c0.95,0.97 1.99,1.71 3.13,2.22c1.13,0.51 2.3,0.77 3.51,0.77c1.17,0 2.14,-0.26 2.91,-0.79s1.15,-1.31 1.15,-2.33c0,-0.73 -0.22,-1.34 -0.66,-1.84c-0.44,-0.49 -1.2,-1 -2.28,-1.51c-1.08,-0.51 -2.59,-1.13 -4.53,-1.87c-0.95,-0.36 -2.01,-0.85 -3.18,-1.45c-1.17,-0.6 -2.3,-1.38 -3.37,-2.33c-1.08,-0.95 -1.97,-2.12 -2.69,-3.51c-0.71,-1.39 -1.07,-3.04 -1.07,-4.94c0,-2.41 0.64,-4.45 1.92,-6.12c1.28,-1.66 2.98,-2.93 5.1,-3.81c2.12,-0.88 4.48,-1.32 7.08,-1.32c2.71,0 5.05,0.43 7.02,1.29s3.6,1.94 4.88,3.24c1.28,1.3 2.27,2.61 2.96,3.92l-8.01,4.44c-0.55,-0.91 -1.18,-1.67 -1.89,-2.28c-0.71,-0.6 -1.47,-1.07 -2.28,-1.4c-0.81,-0.33 -1.63,-0.49 -2.47,-0.49c-1.06,0 -1.9,0.22 -2.52,0.66c-0.62,0.44 -0.93,1.02 -0.93,1.76c0,0.84 0.36,1.54 1.07,2.11c0.71,0.57 1.7,1.1 2.96,1.59c1.26,0.49 2.72,1.03 4.36,1.62c1.43,0.51 2.73,1.12 3.92,1.84c1.19,0.71 2.22,1.55 3.1,2.52c0.88,0.97 1.55,2.08 2.03,3.32c0.48,1.24 0.71,2.63 0.71,4.17c0,2.05 -0.41,3.86 -1.23,5.43s-1.94,2.88 -3.35,3.92c-1.41,1.04 -3.01,1.83 -4.8,2.36c-1.79,0.53 -3.62,0.8 -5.49,0.8c-2.63,0 -5.07,-0.45 -7.32,-1.34c-2.25,-0.9 -4.2,-2.12 -5.84,-3.68c-1.65,-1.55 -2.89,-3.28 -3.73,-5.18l7.24,-5.27c0.78,1.35 1.64,2.51 2.59,3.48z"/>
    <path d="m196.89,373.77l0,24.91c0,1.76 0.46,3.17 1.37,4.25c0.91,1.08 2.29,1.62 4.11,1.62c1.87,0 3.25,-0.54 4.17,-1.62c0.91,-1.08 1.37,-2.5 1.37,-4.25l0,-24.91l10.64,0l0,25.78c0,2.6 -0.42,4.81 -1.26,6.64c-0.84,1.83 -2.01,3.32 -3.51,4.47c-1.5,1.15 -3.22,2 -5.16,2.55c-1.94,0.55 -4.02,0.82 -6.25,0.82c-2.19,0 -4.27,-0.27 -6.23,-0.82c-1.96,-0.55 -3.68,-1.4 -5.16,-2.55c-1.48,-1.15 -2.64,-2.64 -3.48,-4.47c-0.84,-1.83 -1.26,-4.04 -1.26,-6.64l0,-25.78l10.65,0z"/>
    <path d="m248.1,398.49c0.97,1.52 2.26,2.67 3.87,3.46c1.61,0.79 3.38,1.18 5.32,1.18c1.83,0 3.42,-0.24 4.77,-0.71c1.35,-0.47 2.56,-1.09 3.62,-1.84c1.06,-0.75 1.99,-1.54 2.8,-2.39l0,11.19c-1.5,1.1 -3.15,2 -4.96,2.72c-1.81,0.71 -4.12,1.07 -6.94,1.07c-3.18,0 -6.11,-0.48 -8.78,-1.43c-2.67,-0.95 -4.96,-2.32 -6.86,-4.12c-1.9,-1.79 -3.37,-3.92 -4.42,-6.39c-1.04,-2.47 -1.56,-5.22 -1.56,-8.26c0,-3.04 0.52,-5.79 1.56,-8.26c1.04,-2.47 2.51,-4.6 4.42,-6.39c1.9,-1.79 4.19,-3.16 6.86,-4.11c2.67,-0.95 5.6,-1.43 8.78,-1.43c2.82,0 5.13,0.35 6.94,1.04c1.81,0.7 3.46,1.61 4.96,2.74l0,11.19c-0.8,-0.84 -1.74,-1.64 -2.8,-2.39c-1.06,-0.75 -2.27,-1.36 -3.62,-1.84c-1.35,-0.47 -2.94,-0.71 -4.77,-0.71c-1.94,0 -3.71,0.39 -5.32,1.18c-1.61,0.79 -2.9,1.94 -3.87,3.46c-0.97,1.52 -1.45,3.36 -1.45,5.51s0.48,4.01 1.45,5.53z"/>
    <path d="m297.75,398.49c0.97,1.52 2.26,2.67 3.87,3.46c1.61,0.79 3.38,1.18 5.32,1.18c1.83,0 3.42,-0.24 4.77,-0.71c1.35,-0.47 2.56,-1.09 3.62,-1.84c1.06,-0.75 1.99,-1.54 2.8,-2.39l0,11.19c-1.5,1.1 -3.15,2 -4.96,2.72c-1.81,0.71 -4.12,1.07 -6.94,1.07c-3.18,0 -6.11,-0.48 -8.78,-1.43c-2.67,-0.95 -4.96,-2.32 -6.86,-4.12c-1.9,-1.79 -3.37,-3.92 -4.42,-6.39c-1.04,-2.47 -1.56,-5.22 -1.56,-8.26c0,-3.04 0.52,-5.79 1.56,-8.26c1.04,-2.47 2.51,-4.6 4.42,-6.39c1.9,-1.79 4.19,-3.16 6.86,-4.11c2.67,-0.95 5.6,-1.43 8.78,-1.43c2.82,0 5.13,0.35 6.94,1.04c1.81,0.7 3.46,1.61 4.96,2.74l0,11.19c-0.8,-0.84 -1.74,-1.64 -2.8,-2.39c-1.06,-0.75 -2.27,-1.36 -3.62,-1.84c-1.35,-0.47 -2.95,-0.71 -4.77,-0.71c-1.94,0 -3.71,0.39 -5.32,1.18c-1.61,0.79 -2.9,1.94 -3.87,3.46c-0.97,1.52 -1.45,3.36 -1.45,5.51s0.48,4.01 1.45,5.53z"/>
    <path d="m346.66,373.77l0,38.4l-10.2,0l0,-38.4l10.2,0zm-2.97,0l19.37,0l0,8.61l-19.37,0l0,-8.61zm0,14.27l18.27,0l0,8.34l-18.27,0l0,-8.34zm0,15.52l19.37,0l0,8.61l-19.37,0l0,-8.61z"/>
    <path d="m389.01,401.62c0.95,0.97 1.99,1.71 3.13,2.22c1.13,0.51 2.3,0.77 3.51,0.77c1.17,0 2.14,-0.26 2.91,-0.79c0.77,-0.53 1.15,-1.31 1.15,-2.33c0,-0.73 -0.22,-1.34 -0.66,-1.84c-0.44,-0.49 -1.2,-1 -2.28,-1.51c-1.08,-0.51 -2.59,-1.13 -4.53,-1.87c-0.95,-0.36 -2.01,-0.85 -3.18,-1.45c-1.17,-0.6 -2.3,-1.38 -3.37,-2.33c-1.08,-0.95 -1.98,-2.12 -2.69,-3.51c-0.71,-1.39 -1.07,-3.04 -1.07,-4.94c0,-2.41 0.64,-4.45 1.92,-6.12c1.28,-1.66 2.98,-2.93 5.1,-3.81s4.48,-1.32 7.08,-1.32c2.71,0 5.05,0.43 7.02,1.29s3.6,1.94 4.88,3.24c1.28,1.3 2.27,2.61 2.96,3.92l-8.01,4.44c-0.55,-0.91 -1.18,-1.67 -1.89,-2.28c-0.71,-0.6 -1.47,-1.07 -2.28,-1.4c-0.8,-0.33 -1.63,-0.49 -2.47,-0.49c-1.06,0 -1.9,0.22 -2.52,0.66c-0.62,0.44 -0.93,1.02 -0.93,1.76c0,0.84 0.36,1.54 1.07,2.11c0.71,0.57 1.7,1.1 2.96,1.59c1.26,0.49 2.72,1.03 4.36,1.62c1.43,0.51 2.73,1.12 3.92,1.84c1.19,0.71 2.22,1.55 3.1,2.52c0.88,0.97 1.55,2.08 2.03,3.32c0.47,1.24 0.71,2.63 0.71,4.17c0,2.05 -0.41,3.86 -1.23,5.43c-0.82,1.57 -1.94,2.88 -3.35,3.92c-1.41,1.04 -3.01,1.83 -4.8,2.36s-3.62,0.8 -5.49,0.8c-2.63,0 -5.07,-0.45 -7.32,-1.34c-2.25,-0.9 -4.2,-2.12 -5.84,-3.68c-1.65,-1.55 -2.89,-3.28 -3.73,-5.18l7.24,-5.27c0.78,1.35 1.64,2.51 2.59,3.48z"/>
    <path d="m435.53,401.62c0.95,0.97 1.99,1.71 3.13,2.22c1.13,0.51 2.3,0.77 3.51,0.77c1.17,0 2.14,-0.26 2.91,-0.79c0.77,-0.53 1.15,-1.31 1.15,-2.33c0,-0.73 -0.22,-1.34 -0.66,-1.84c-0.44,-0.49 -1.2,-1 -2.28,-1.51c-1.08,-0.51 -2.59,-1.13 -4.53,-1.87c-0.95,-0.36 -2.01,-0.85 -3.18,-1.45c-1.17,-0.6 -2.3,-1.38 -3.37,-2.33c-1.08,-0.95 -1.98,-2.12 -2.69,-3.51c-0.71,-1.39 -1.07,-3.04 -1.07,-4.94c0,-2.41 0.64,-4.45 1.92,-6.12c1.28,-1.66 2.98,-2.93 5.1,-3.81s4.48,-1.32 7.08,-1.32c2.71,0 5.05,0.43 7.02,1.29s3.6,1.94 4.88,3.24c1.28,1.3 2.27,2.61 2.96,3.92l-8.01,4.44c-0.55,-0.91 -1.18,-1.67 -1.89,-2.28c-0.71,-0.6 -1.47,-1.07 -2.28,-1.4c-0.8,-0.33 -1.63,-0.49 -2.47,-0.49c-1.06,0 -1.9,0.22 -2.52,0.66c-0.62,0.44 -0.93,1.02 -0.93,1.76c0,0.84 0.36,1.54 1.07,2.11c0.71,0.57 1.7,1.1 2.96,1.59c1.26,0.49 2.72,1.03 4.36,1.62c1.43,0.51 2.73,1.12 3.92,1.84c1.19,0.71 2.22,1.55 3.1,2.52c0.88,0.97 1.55,2.08 2.03,3.32c0.47,1.24 0.71,2.63 0.71,4.17c0,2.05 -0.41,3.86 -1.23,5.43c-0.82,1.57 -1.94,2.88 -3.35,3.92c-1.41,1.04 -3.01,1.83 -4.8,2.36s-3.62,0.8 -5.49,0.8c-2.63,0 -5.07,-0.45 -7.32,-1.34c-2.25,-0.9 -4.2,-2.12 -5.84,-3.68c-1.65,-1.55 -2.89,-3.28 -3.73,-5.18l7.24,-5.27c0.78,1.35 1.64,2.51 2.59,3.48z"/>
   </g>
   <g>
    <g>
     <path d="m154.81,425.02l0,15.35l-3.14,0l0,-15.35l3.14,0zm-2.1,5.77l11.27,0l0,2.83l-11.27,0l0,-2.83zm12.41,-5.77l0,15.35l-3.14,0l0,-15.35l3.14,0z"/>
     <path d="m176.17,425.02l0,15.35l-3.03,0l0,-15.35l3.03,0zm-1.01,0l7.74,0l0,2.65l-7.74,0l0,-2.65zm0,5.9l7.3,0l0,2.61l-7.3,0l0,-2.61zm0,6.8l7.74,0l0,2.65l-7.74,0l0,-2.65z"/>
     <path d="m194.55,435.28l0.07,0.7l-2.02,4.39l-3.53,0l7.79,-16.25l7.79,16.25l-3.55,0l-1.97,-4.25l0.04,-0.79l-2.3,-5.33l-2.32,5.28zm-1.34,-0.88l7.37,0l0.37,2.48l-8.11,0l0.37,-2.48z"/>
     <path d="m214.16,425.02l0,12.61l6.12,0l0,2.74l-9.25,0l0,-15.35l3.13,0z"/>
     <path d="m223.72,425.02l11.4,0l0,2.83l-4.15,0l0,12.52l-3.14,0l0,-12.52l-4.12,0l0,-2.83l0.01,0z"/>
     <path d="m244.75,425.02l0,15.35l-3.14,0l0,-15.35l3.14,0zm-2.1,5.77l11.27,0l0,2.83l-11.27,0l0,-2.83zm12.41,-5.77l0,15.35l-3.14,0l0,-15.35l3.14,0z"/>
     <path d="m266.3,435.34c0.46,0.75 1.06,1.33 1.81,1.73c0.75,0.4 1.56,0.6 2.43,0.6c0.73,0 1.38,-0.09 1.95,-0.29s1.09,-0.45 1.55,-0.77c0.46,-0.32 0.86,-0.67 1.2,-1.05l0,3.53c-0.63,0.5 -1.31,0.88 -2.05,1.16c-0.74,0.28 -1.67,0.42 -2.8,0.42c-1.17,0 -2.26,-0.19 -3.26,-0.57c-1,-0.38 -1.87,-0.93 -2.61,-1.65c-0.74,-0.72 -1.31,-1.56 -1.71,-2.53c-0.4,-0.97 -0.6,-2.05 -0.6,-3.23s0.2,-2.26 0.6,-3.24c0.4,-0.97 0.97,-1.82 1.71,-2.53c0.74,-0.72 1.61,-1.26 2.61,-1.65c1,-0.38 2.09,-0.57 3.26,-0.57c1.13,0 2.06,0.14 2.8,0.42c0.74,0.28 1.42,0.67 2.05,1.16l0,3.53c-0.34,-0.38 -0.73,-0.73 -1.2,-1.05c-0.46,-0.32 -0.98,-0.58 -1.55,-0.77c-0.57,-0.19 -1.22,-0.29 -1.95,-0.29c-0.88,0 -1.69,0.2 -2.43,0.6s-1.35,0.98 -1.81,1.72c-0.46,0.75 -0.69,1.63 -0.69,2.65c0,1.03 0.23,1.91 0.69,2.67z"/>
     <path d="m286.57,435.28l0.07,0.7l-2.02,4.39l-3.53,0l7.79,-16.25l7.79,16.25l-3.55,0l-1.97,-4.25l0.04,-0.79l-2.3,-5.33l-2.32,5.28zm-1.33,-0.88l7.37,0l0.37,2.48l-8.11,0l0.37,-2.48z"/>
     <path d="m306.18,425.02l0,15.35l-3.14,0l0,-15.35l3.14,0zm-1.23,0l3.25,0c1.21,0 2.24,0.21 3.09,0.61c0.85,0.41 1.5,0.98 1.95,1.71c0.45,0.73 0.68,1.59 0.68,2.57c0,0.96 -0.23,1.82 -0.68,2.55c-0.45,0.74 -1.1,1.31 -1.95,1.72c-0.85,0.41 -1.88,0.61 -3.09,0.61l-3.25,0l0,-2.5l3.05,0c0.56,0 1.03,-0.09 1.44,-0.27s0.71,-0.45 0.93,-0.79c0.22,-0.34 0.33,-0.76 0.33,-1.24s-0.11,-0.9 -0.33,-1.24c-0.22,-0.34 -0.53,-0.61 -0.93,-0.79c-0.4,-0.18 -0.88,-0.27 -1.44,-0.27l-3.05,0l0,-2.67zm4.89,8.2l5,7.15l-3.71,0l-4.61,-7.15l3.32,0z"/>
     <path d="m324.38,425.02l0,15.35l-3.03,0l0,-15.35l3.03,0zm-1.01,0l7.74,0l0,2.65l-7.74,0l0,-2.65zm0,5.9l7.3,0l0,2.61l-7.3,0l0,-2.61zm0,6.8l7.74,0l0,2.65l-7.74,0l0,-2.65z"/>
     <path d="m357.67,432.17l7.57,0c0.04,1.17 -0.09,2.27 -0.41,3.31s-0.8,1.96 -1.47,2.75c-0.67,0.8 -1.49,1.42 -2.47,1.88c-0.98,0.45 -2.1,0.68 -3.36,0.68c-1.18,0 -2.28,-0.2 -3.28,-0.59c-1,-0.39 -1.87,-0.95 -2.61,-1.67c-0.74,-0.72 -1.31,-1.57 -1.71,-2.57s-0.6,-2.08 -0.6,-3.27s0.21,-2.27 0.63,-3.26c0.42,-0.99 1,-1.83 1.74,-2.53c0.75,-0.7 1.62,-1.24 2.63,-1.62c1.01,-0.38 2.11,-0.57 3.29,-0.57c1.05,0 2,0.15 2.84,0.44c0.84,0.29 1.59,0.7 2.24,1.22s1.21,1.14 1.68,1.85l-2.67,1.56c-0.38,-0.67 -0.91,-1.22 -1.59,-1.63c-0.68,-0.42 -1.51,-0.62 -2.49,-0.62c-0.92,0 -1.76,0.21 -2.52,0.62c-0.76,0.42 -1.36,1.01 -1.81,1.79c-0.45,0.78 -0.67,1.7 -0.67,2.76c0,1.05 0.22,1.98 0.66,2.77s1.03,1.41 1.79,1.85c0.75,0.44 1.6,0.66 2.55,0.66c0.63,0 1.19,-0.08 1.69,-0.25c0.5,-0.17 0.92,-0.41 1.28,-0.71s0.66,-0.66 0.91,-1.05c0.25,-0.39 0.44,-0.83 0.57,-1.29l-4.41,0l0,-2.51z"/>
     <path d="m375.66,425.02l0,15.35l-3.14,0l0,-15.35l3.14,0zm-1.23,0l3.25,0c1.21,0 2.24,0.21 3.09,0.61c0.85,0.41 1.5,0.98 1.95,1.71c0.45,0.73 0.68,1.59 0.68,2.57c0,0.96 -0.23,1.82 -0.68,2.55c-0.45,0.74 -1.1,1.31 -1.95,1.72c-0.85,0.41 -1.88,0.61 -3.09,0.61l-3.25,0l0,-2.5l3.05,0c0.56,0 1.03,-0.09 1.44,-0.27s0.71,-0.45 0.93,-0.79c0.22,-0.34 0.33,-0.76 0.33,-1.24s-0.11,-0.9 -0.33,-1.24c-0.22,-0.34 -0.53,-0.61 -0.93,-0.79c-0.4,-0.18 -0.88,-0.27 -1.44,-0.27l-3.05,0l0,-2.67zm4.89,8.2l5,7.15l-3.71,0l-4.61,-7.15l3.32,0z"/>
     <path d="m390.57,429.48c0.41,-0.97 0.98,-1.82 1.71,-2.53c0.73,-0.72 1.59,-1.27 2.58,-1.66c0.99,-0.39 2.06,-0.58 3.21,-0.58c1.17,0 2.24,0.19 3.22,0.58c0.98,0.39 1.84,0.94 2.58,1.66c0.74,0.72 1.31,1.56 1.71,2.53c0.4,0.97 0.6,2.04 0.6,3.21c0,1.16 -0.2,2.23 -0.6,3.21c-0.4,0.99 -0.96,1.85 -1.69,2.58c-0.72,0.73 -1.58,1.3 -2.57,1.7c-0.99,0.4 -2.07,0.6 -3.26,0.6c-1.18,0 -2.27,-0.2 -3.26,-0.6c-0.99,-0.4 -1.85,-0.97 -2.58,-1.7c-0.73,-0.73 -1.29,-1.59 -1.69,-2.58c-0.39,-0.99 -0.59,-2.06 -0.59,-3.21c0.02,-1.17 0.22,-2.24 0.63,-3.21zm3.31,5.82c0.41,0.76 0.97,1.36 1.69,1.8c0.72,0.44 1.55,0.66 2.5,0.66c0.95,0 1.78,-0.22 2.5,-0.66c0.72,-0.44 1.28,-1.04 1.68,-1.8c0.4,-0.76 0.6,-1.63 0.6,-2.61s-0.2,-1.85 -0.59,-2.61c-0.39,-0.76 -0.95,-1.36 -1.67,-1.8c-0.72,-0.44 -1.56,-0.66 -2.52,-0.66c-0.95,0 -1.78,0.22 -2.5,0.66c-0.72,0.44 -1.28,1.04 -1.69,1.8c-0.41,0.76 -0.61,1.63 -0.61,2.61s0.2,1.85 0.61,2.61z"/>
     <path d="m416.36,425.02l0,10.11c0,0.88 0.23,1.58 0.69,2.12c0.46,0.53 1.14,0.8 2.05,0.8s1.59,-0.27 2.05,-0.8c0.46,-0.53 0.69,-1.24 0.69,-2.12l0,-10.11l3.14,0l0,10.31c0,0.91 -0.15,1.7 -0.44,2.39c-0.29,0.69 -0.71,1.26 -1.24,1.73c-0.53,0.47 -1.16,0.82 -1.88,1.06c-0.72,0.24 -1.49,0.36 -2.33,0.36c-0.85,0 -1.63,-0.12 -2.35,-0.36s-1.34,-0.6 -1.86,-1.06s-0.94,-1.04 -1.23,-1.73c-0.29,-0.69 -0.44,-1.48 -0.44,-2.39l0,-10.31l3.15,0z"/>
     <path d="m436.03,425.02l0,15.35l-3.14,0l0,-15.35l3.14,0zm-1.22,0l3.05,0c1.21,0 2.25,0.2 3.1,0.59s1.51,0.96 1.96,1.69c0.45,0.73 0.68,1.6 0.68,2.61c0,0.99 -0.23,1.86 -0.68,2.6s-1.11,1.3 -1.96,1.7c-0.86,0.4 -1.89,0.59 -3.1,0.59l-3.05,0l0,-2.65l3.05,0c0.83,0 1.49,-0.19 1.97,-0.57c0.48,-0.38 0.72,-0.94 0.72,-1.67c0,-0.75 -0.24,-1.3 -0.72,-1.68s-1.14,-0.56 -1.97,-0.56l-3.05,0l0,-2.65z"/>
    </g>
   </g>
  </symbol>
 </defs>
 <g>
  <title>Layer 1</title>
  <g id="svg_4"/>
  <use y="26.18368" x="12.50671" transform="matrix(1.9336925364823623,0,0,1.9336925364823623,-317.21782509540634,-268.7242916495944) " xlink:href="#svg_2" id="svg_3"/>
 </g>
</svg>