<?xml version="1.0" encoding="utf-8"?>
<!-- Generator: Adobe Illustrator 26.3.1, SVG Export Plug-In . SVG Version: 6.00 Build 0)  -->
<svg version="1.1" id="Layer_1" xmlns="http://www.w3.org/2000/svg" xmlns:xlink="http://www.w3.org/1999/xlink" x="0px" y="0px"
	 viewBox="0 0 595.28 595.28" style="enable-background:new 0 0 595.28 595.28;" xml:space="preserve">
<style type="text/css">
	.st0{fill:#F321B6;}
	.st1{fill:#EB1FA7;}
	.st2{fill:#0354C0;}
	.st3{fill:#0054C1;}
</style>
<path class="st0" d="M471.14-152.86"/>
<g>
	<path class="st1" d="M382.43,320.36c-0.04,0.2-0.03,0.4,0.02,0.6c-3.18,5.87-6.82,11.47-11.56,16.16
		c-12.02,11.88-26.33,17.62-43.41,15.36c-12.76-1.69-23.6-7.3-31.28-17.55c-15.07-20.11-17.79-42.52-10.71-66.35
		c2.44-8.22,6.84-15.49,11.31-22.71c0,0,0.05-0.04,0.05-0.04c0.35-0.03,0.52-0.21,0.49-0.57c0,0,0.07-0.14,0.07-0.14
		c0.38-0.32,0.83-0.59,1.12-0.98c8.47-11.34,19.3-19.67,32.44-24.87c18.74-7.42,37.27-7.41,55.44,2.04
		c1.63,0.85,2.63,1.95,2.68,3.74c0.12,4.7,0.27,9.38-0.2,14.09c-0.5,5.01-2.06,9.77-2.84,14.7c0,0,0.03,0.01,0.03,0.01
		c-0.77,0.63-0.87,1.59-1.2,2.44c-3.93,10.01-9.25,19.2-16.73,26.99c-18.48,19.27-41.39,28.36-67.84,29.21
		c-3.37,0.11-6.77-0.27-10.12,0.47c-0.88,0.19-2.08,0.04-2.2,1.22c-0.12,1.23,1.04,1.68,2,1.98c0.76,0.24,1.62,0.35,2.41,0.25
		c14.17-1.71,27.96,0.25,41.62,3.96c12.07,3.28,24.25,4.79,36.74,2.49C374.68,322.12,378.4,320.5,382.43,320.36z"/>
	<path class="st2" d="M303.78,212.43c0,0-0.21-0.05-0.21-0.05c-2.37,0.54-4.71,1.24-7.11,1.6c-13.44,2.06-24.33-2.71-33.31-12.53
		c0,0,0.01,0,0.01,0c-1.67-2.85-3.34-5.69-5.01-8.54c0,0,0.01,0.01,0.01,0.01c-2.22-6.58-3.35-13.24-1.99-20.2
		c2.51-12.88,9.84-22.08,21.89-26.85c12.25-4.85,24.12-3.02,34.43,5.3c18.21,14.69,17.7,41.77-0.72,56.23
		C309.26,209.38,306.17,210.32,303.78,212.43z"/>
	<path class="st3" d="M192.22,234.4c-0.12-10.89,2.66-20.65,7.13-30.02c0.74-1.56,1.92-2.27,3.4-2.83
		c15.74-6.05,30.88-4.14,45.27,3.98c17.05,9.62,28.88,23.89,36.03,42.08c0.65,1.66,0.65,3-0.21,4.63
		c-10.68,20.22-12.67,41.19-5.3,62.94c1.2,3.54,1.16,3.75-2.46,3.4c-18.73-1.79-35.67-8.33-50.43-19.98
		c-17.38-13.71-28.47-31.42-32.47-53.33C192.5,241.56,192.08,237.78,192.22,234.4z"/>
	<path class="st1" d="M208.96,337.42c-1.74-3.52-4.75-6.11-6.79-9.4c-2.17-3.49-1.98-3.78,2.11-4.11
		c6.45-0.52,12.55-2.86,18.93-3.82c11.33-1.7,22.63-1.75,33.89,0.56c7.61,1.57,15.2,3.32,23.04,3.29c1.39-0.01,2.33,0.47,2.91,1.78
		c0.37,0.84,0.75,1.8,1.42,2.34c3.31,2.68,2.16,5.11-0.21,7.59c-8.46,8.85-18.56,14.76-30.72,16.75
		c-16.34,2.67-30.22-2.65-42.34-13.4c-0.68-0.6-1.21-1.42-2.22-1.56c0,0-0.14,0.12-0.14,0.12L208.96,337.42z"/>
</g>
<g>
	<path d="M147.62,401.62c0.95,0.97,1.99,1.71,3.13,2.22c1.13,0.51,2.3,0.77,3.51,0.77c1.17,0,2.14-0.26,2.91-0.79
		s1.15-1.31,1.15-2.33c0-0.73-0.22-1.34-0.66-1.84c-0.44-0.49-1.2-1-2.28-1.51c-1.08-0.51-2.59-1.13-4.53-1.87
		c-0.95-0.36-2.01-0.85-3.18-1.45c-1.17-0.6-2.3-1.38-3.37-2.33c-1.08-0.95-1.97-2.12-2.69-3.51c-0.71-1.39-1.07-3.04-1.07-4.94
		c0-2.41,0.64-4.45,1.92-6.12c1.28-1.66,2.98-2.93,5.1-3.81c2.12-0.88,4.48-1.32,7.08-1.32c2.71,0,5.05,0.43,7.02,1.29
		s3.6,1.94,4.88,3.24c1.28,1.3,2.27,2.61,2.96,3.92l-8.01,4.44c-0.55-0.91-1.18-1.67-1.89-2.28c-0.71-0.6-1.47-1.07-2.28-1.4
		c-0.81-0.33-1.63-0.49-2.47-0.49c-1.06,0-1.9,0.22-2.52,0.66c-0.62,0.44-0.93,1.02-0.93,1.76c0,0.84,0.36,1.54,1.07,2.11
		c0.71,0.57,1.7,1.1,2.96,1.59c1.26,0.49,2.72,1.03,4.36,1.62c1.43,0.51,2.73,1.12,3.92,1.84c1.19,0.71,2.22,1.55,3.1,2.52
		c0.88,0.97,1.55,2.08,2.03,3.32c0.48,1.24,0.71,2.63,0.71,4.17c0,2.05-0.41,3.86-1.23,5.43s-1.94,2.88-3.35,3.92
		c-1.41,1.04-3.01,1.83-4.8,2.36c-1.79,0.53-3.62,0.8-5.49,0.8c-2.63,0-5.07-0.45-7.32-1.34c-2.25-0.9-4.2-2.12-5.84-3.68
		c-1.65-1.55-2.89-3.28-3.73-5.18l7.24-5.27C145.81,399.49,146.67,400.65,147.62,401.62z"/>
	<path d="M196.89,373.77v24.91c0,1.76,0.46,3.17,1.37,4.25c0.91,1.08,2.29,1.62,4.11,1.62c1.87,0,3.25-0.54,4.17-1.62
		c0.91-1.08,1.37-2.5,1.37-4.25v-24.91h10.64v25.78c0,2.6-0.42,4.81-1.26,6.64c-0.84,1.83-2.01,3.32-3.51,4.47
		c-1.5,1.15-3.22,2-5.16,2.55c-1.94,0.55-4.02,0.82-6.25,0.82c-2.19,0-4.27-0.27-6.23-0.82c-1.96-0.55-3.68-1.4-5.16-2.55
		c-1.48-1.15-2.64-2.64-3.48-4.47c-0.84-1.83-1.26-4.04-1.26-6.64v-25.78H196.89z"/>
	<path d="M248.1,398.49c0.97,1.52,2.26,2.67,3.87,3.46c1.61,0.79,3.38,1.18,5.32,1.18c1.83,0,3.42-0.24,4.77-0.71
		c1.35-0.47,2.56-1.09,3.62-1.84c1.06-0.75,1.99-1.54,2.8-2.39v11.19c-1.5,1.1-3.15,2-4.96,2.72c-1.81,0.71-4.12,1.07-6.94,1.07
		c-3.18,0-6.11-0.48-8.78-1.43c-2.67-0.95-4.96-2.32-6.86-4.12c-1.9-1.79-3.37-3.92-4.42-6.39c-1.04-2.47-1.56-5.22-1.56-8.26
		c0-3.04,0.52-5.79,1.56-8.26c1.04-2.47,2.51-4.6,4.42-6.39c1.9-1.79,4.19-3.16,6.86-4.11c2.67-0.95,5.6-1.43,8.78-1.43
		c2.82,0,5.13,0.35,6.94,1.04c1.81,0.7,3.46,1.61,4.96,2.74v11.19c-0.8-0.84-1.74-1.64-2.8-2.39c-1.06-0.75-2.27-1.36-3.62-1.84
		c-1.35-0.47-2.94-0.71-4.77-0.71c-1.94,0-3.71,0.39-5.32,1.18c-1.61,0.79-2.9,1.94-3.87,3.46c-0.97,1.52-1.45,3.36-1.45,5.51
		S247.13,396.97,248.1,398.49z"/>
	<path d="M297.75,398.49c0.97,1.52,2.26,2.67,3.87,3.46c1.61,0.79,3.38,1.18,5.32,1.18c1.83,0,3.42-0.24,4.77-0.71
		c1.35-0.47,2.56-1.09,3.62-1.84c1.06-0.75,1.99-1.54,2.8-2.39v11.19c-1.5,1.1-3.15,2-4.96,2.72c-1.81,0.71-4.12,1.07-6.94,1.07
		c-3.18,0-6.11-0.48-8.78-1.43c-2.67-0.95-4.96-2.32-6.86-4.12c-1.9-1.79-3.37-3.92-4.42-6.39c-1.04-2.47-1.56-5.22-1.56-8.26
		c0-3.04,0.52-5.79,1.56-8.26c1.04-2.47,2.51-4.6,4.42-6.39c1.9-1.79,4.19-3.16,6.86-4.11c2.67-0.95,5.6-1.43,8.78-1.43
		c2.82,0,5.13,0.35,6.94,1.04c1.81,0.7,3.46,1.61,4.96,2.74v11.19c-0.8-0.84-1.74-1.64-2.8-2.39c-1.06-0.75-2.27-1.36-3.62-1.84
		c-1.35-0.47-2.95-0.71-4.77-0.71c-1.94,0-3.71,0.39-5.32,1.18c-1.61,0.79-2.9,1.94-3.87,3.46c-0.97,1.52-1.45,3.36-1.45,5.51
		S296.78,396.97,297.75,398.49z"/>
	<path d="M346.66,373.77v38.4h-10.2v-38.4H346.66z M343.69,373.77h19.37v8.61h-19.37V373.77z M343.69,388.04h18.27v8.34h-18.27
		V388.04z M343.69,403.56h19.37v8.61h-19.37V403.56z"/>
	<path d="M389.01,401.62c0.95,0.97,1.99,1.71,3.13,2.22c1.13,0.51,2.3,0.77,3.51,0.77c1.17,0,2.14-0.26,2.91-0.79
		c0.77-0.53,1.15-1.31,1.15-2.33c0-0.73-0.22-1.34-0.66-1.84c-0.44-0.49-1.2-1-2.28-1.51c-1.08-0.51-2.59-1.13-4.53-1.87
		c-0.95-0.36-2.01-0.85-3.18-1.45c-1.17-0.6-2.3-1.38-3.37-2.33c-1.08-0.95-1.98-2.12-2.69-3.51c-0.71-1.39-1.07-3.04-1.07-4.94
		c0-2.41,0.64-4.45,1.92-6.12c1.28-1.66,2.98-2.93,5.1-3.81s4.48-1.32,7.08-1.32c2.71,0,5.05,0.43,7.02,1.29s3.6,1.94,4.88,3.24
		c1.28,1.3,2.27,2.61,2.96,3.92l-8.01,4.44c-0.55-0.91-1.18-1.67-1.89-2.28c-0.71-0.6-1.47-1.07-2.28-1.4
		c-0.8-0.33-1.63-0.49-2.47-0.49c-1.06,0-1.9,0.22-2.52,0.66c-0.62,0.44-0.93,1.02-0.93,1.76c0,0.84,0.36,1.54,1.07,2.11
		c0.71,0.57,1.7,1.1,2.96,1.59c1.26,0.49,2.72,1.03,4.36,1.62c1.43,0.51,2.73,1.12,3.92,1.84c1.19,0.71,2.22,1.55,3.1,2.52
		c0.88,0.97,1.55,2.08,2.03,3.32c0.47,1.24,0.71,2.63,0.71,4.17c0,2.05-0.41,3.86-1.23,5.43c-0.82,1.57-1.94,2.88-3.35,3.92
		c-1.41,1.04-3.01,1.83-4.8,2.36s-3.62,0.8-5.49,0.8c-2.63,0-5.07-0.45-7.32-1.34c-2.25-0.9-4.2-2.12-5.84-3.68
		c-1.65-1.55-2.89-3.28-3.73-5.18l7.24-5.27C387.2,399.49,388.06,400.65,389.01,401.62z"/>
	<path d="M435.53,401.62c0.95,0.97,1.99,1.71,3.13,2.22c1.13,0.51,2.3,0.77,3.51,0.77c1.17,0,2.14-0.26,2.91-0.79
		c0.77-0.53,1.15-1.31,1.15-2.33c0-0.73-0.22-1.34-0.66-1.84c-0.44-0.49-1.2-1-2.28-1.51c-1.08-0.51-2.59-1.13-4.53-1.87
		c-0.95-0.36-2.01-0.85-3.18-1.45c-1.17-0.6-2.3-1.38-3.37-2.33c-1.08-0.95-1.98-2.12-2.69-3.51c-0.71-1.39-1.07-3.04-1.07-4.94
		c0-2.41,0.64-4.45,1.92-6.12c1.28-1.66,2.98-2.93,5.1-3.81s4.48-1.32,7.08-1.32c2.71,0,5.05,0.43,7.02,1.29s3.6,1.94,4.88,3.24
		c1.28,1.3,2.27,2.61,2.96,3.92l-8.01,4.44c-0.55-0.91-1.18-1.67-1.89-2.28c-0.71-0.6-1.47-1.07-2.28-1.4
		c-0.8-0.33-1.63-0.49-2.47-0.49c-1.06,0-1.9,0.22-2.52,0.66c-0.62,0.44-0.93,1.02-0.93,1.76c0,0.84,0.36,1.54,1.07,2.11
		c0.71,0.57,1.7,1.1,2.96,1.59c1.26,0.49,2.72,1.03,4.36,1.62c1.43,0.51,2.73,1.12,3.92,1.84c1.19,0.71,2.22,1.55,3.1,2.52
		c0.88,0.97,1.55,2.08,2.03,3.32c0.47,1.24,0.71,2.63,0.71,4.17c0,2.05-0.41,3.86-1.23,5.43c-0.82,1.57-1.94,2.88-3.35,3.92
		c-1.41,1.04-3.01,1.83-4.8,2.36s-3.62,0.8-5.49,0.8c-2.63,0-5.07-0.45-7.32-1.34c-2.25-0.9-4.2-2.12-5.84-3.68
		c-1.65-1.55-2.89-3.28-3.73-5.18l7.24-5.27C433.72,399.49,434.58,400.65,435.53,401.62z"/>
</g>
<g>
	<g>
		<path d="M154.81,425.02v15.35h-3.14v-15.35H154.81z M152.71,430.79h11.27v2.83h-11.27V430.79z M165.12,425.02v15.35h-3.14v-15.35
			H165.12z"/>
		<path d="M176.17,425.02v15.35h-3.03v-15.35H176.17z M175.16,425.02h7.74v2.65h-7.74V425.02z M175.16,430.92h7.3v2.61h-7.3V430.92z
			 M175.16,437.72h7.74v2.65h-7.74V437.72z"/>
		<path d="M194.55,435.28l0.07,0.7l-2.02,4.39h-3.53l7.79-16.25l7.79,16.25h-3.55l-1.97-4.25l0.04-0.79l-2.3-5.33L194.55,435.28z
			 M193.21,434.4h7.37l0.37,2.48h-8.11L193.21,434.4z"/>
		<path d="M214.16,425.02v12.61h6.12v2.74h-9.25v-15.35H214.16z"/>
		<path d="M223.72,425.02h11.4v2.83h-4.15v12.52h-3.14v-12.52h-4.12V425.02z"/>
		<path d="M244.75,425.02v15.35h-3.14v-15.35H244.75z M242.65,430.79h11.27v2.83h-11.27V430.79z M255.06,425.02v15.35h-3.14v-15.35
			H255.06z"/>
		<path d="M266.3,435.34c0.46,0.75,1.06,1.33,1.81,1.73c0.75,0.4,1.56,0.6,2.43,0.6c0.73,0,1.38-0.09,1.95-0.29s1.09-0.45,1.55-0.77
			c0.46-0.32,0.86-0.67,1.2-1.05v3.53c-0.63,0.5-1.31,0.88-2.05,1.16c-0.74,0.28-1.67,0.42-2.8,0.42c-1.17,0-2.26-0.19-3.26-0.57
			c-1-0.38-1.87-0.93-2.61-1.65c-0.74-0.72-1.31-1.56-1.71-2.53c-0.4-0.97-0.6-2.05-0.6-3.23s0.2-2.26,0.6-3.24
			c0.4-0.97,0.97-1.82,1.71-2.53c0.74-0.72,1.61-1.26,2.61-1.65c1-0.38,2.09-0.57,3.26-0.57c1.13,0,2.06,0.14,2.8,0.42
			c0.74,0.28,1.42,0.67,2.05,1.16v3.53c-0.34-0.38-0.73-0.73-1.2-1.05c-0.46-0.32-0.98-0.58-1.55-0.77
			c-0.57-0.19-1.22-0.29-1.95-0.29c-0.88,0-1.69,0.2-2.43,0.6s-1.35,0.98-1.81,1.72c-0.46,0.75-0.69,1.63-0.69,2.65
			C265.61,433.7,265.84,434.58,266.3,435.34z"/>
		<path d="M286.57,435.28l0.07,0.7l-2.02,4.39h-3.53l7.79-16.25l7.79,16.25h-3.55l-1.97-4.25l0.04-0.79l-2.3-5.33L286.57,435.28z
			 M285.24,434.4h7.37l0.37,2.48h-8.11L285.24,434.4z"/>
		<path d="M306.18,425.02v15.35h-3.14v-15.35H306.18z M304.95,425.02h3.25c1.21,0,2.24,0.21,3.09,0.61c0.85,0.41,1.5,0.98,1.95,1.71
			c0.45,0.73,0.68,1.59,0.68,2.57c0,0.96-0.23,1.82-0.68,2.55c-0.45,0.74-1.1,1.31-1.95,1.72c-0.85,0.41-1.88,0.61-3.09,0.61h-3.25
			v-2.5H308c0.56,0,1.03-0.09,1.44-0.27s0.71-0.45,0.93-0.79c0.22-0.34,0.33-0.76,0.33-1.24s-0.11-0.9-0.33-1.24
			c-0.22-0.34-0.53-0.61-0.93-0.79c-0.4-0.18-0.88-0.27-1.44-0.27h-3.05V425.02z M309.84,433.22l5,7.15h-3.71l-4.61-7.15H309.84z"/>
		<path d="M324.38,425.02v15.35h-3.03v-15.35H324.38z M323.37,425.02h7.74v2.65h-7.74V425.02z M323.37,430.92h7.3v2.61h-7.3V430.92z
			 M323.37,437.72h7.74v2.65h-7.74V437.72z"/>
		<path d="M357.67,432.17h7.57c0.04,1.17-0.09,2.27-0.41,3.31s-0.8,1.96-1.47,2.75c-0.67,0.8-1.49,1.42-2.47,1.88
			c-0.98,0.45-2.1,0.68-3.36,0.68c-1.18,0-2.28-0.2-3.28-0.59c-1-0.39-1.87-0.95-2.61-1.67c-0.74-0.72-1.31-1.57-1.71-2.57
			s-0.6-2.08-0.6-3.27s0.21-2.27,0.63-3.26c0.42-0.99,1-1.83,1.74-2.53c0.75-0.7,1.62-1.24,2.63-1.62c1.01-0.38,2.11-0.57,3.29-0.57
			c1.05,0,2,0.15,2.84,0.44c0.84,0.29,1.59,0.7,2.24,1.22s1.21,1.14,1.68,1.85l-2.67,1.56c-0.38-0.67-0.91-1.22-1.59-1.63
			c-0.68-0.42-1.51-0.62-2.49-0.62c-0.92,0-1.76,0.21-2.52,0.62c-0.76,0.42-1.36,1.01-1.81,1.79c-0.45,0.78-0.67,1.7-0.67,2.76
			c0,1.05,0.22,1.98,0.66,2.77s1.03,1.41,1.79,1.85c0.75,0.44,1.6,0.66,2.55,0.66c0.63,0,1.19-0.08,1.69-0.25
			c0.5-0.17,0.92-0.41,1.28-0.71s0.66-0.66,0.91-1.05c0.25-0.39,0.44-0.83,0.57-1.29h-4.41V432.17z"/>
		<path d="M375.66,425.02v15.35h-3.14v-15.35H375.66z M374.43,425.02h3.25c1.21,0,2.24,0.21,3.09,0.61c0.85,0.41,1.5,0.98,1.95,1.71
			c0.45,0.73,0.68,1.59,0.68,2.57c0,0.96-0.23,1.82-0.68,2.55c-0.45,0.74-1.1,1.31-1.95,1.72c-0.85,0.41-1.88,0.61-3.09,0.61h-3.25
			v-2.5h3.05c0.56,0,1.03-0.09,1.44-0.27s0.71-0.45,0.93-0.79c0.22-0.34,0.33-0.76,0.33-1.24s-0.11-0.9-0.33-1.24
			c-0.22-0.34-0.53-0.61-0.93-0.79c-0.4-0.18-0.88-0.27-1.44-0.27h-3.05V425.02z M379.32,433.22l5,7.15h-3.71l-4.61-7.15H379.32z"/>
		<path d="M390.57,429.48c0.41-0.97,0.98-1.82,1.71-2.53c0.73-0.72,1.59-1.27,2.58-1.66c0.99-0.39,2.06-0.58,3.21-0.58
			c1.17,0,2.24,0.19,3.22,0.58c0.98,0.39,1.84,0.94,2.58,1.66c0.74,0.72,1.31,1.56,1.71,2.53c0.4,0.97,0.6,2.04,0.6,3.21
			c0,1.16-0.2,2.23-0.6,3.21c-0.4,0.99-0.96,1.85-1.69,2.58c-0.72,0.73-1.58,1.3-2.57,1.7c-0.99,0.4-2.07,0.6-3.26,0.6
			c-1.18,0-2.27-0.2-3.26-0.6c-0.99-0.4-1.85-0.97-2.58-1.7c-0.73-0.73-1.29-1.59-1.69-2.58c-0.39-0.99-0.59-2.06-0.59-3.21
			C389.96,431.52,390.16,430.45,390.57,429.48z M393.88,435.3c0.41,0.76,0.97,1.36,1.69,1.8c0.72,0.44,1.55,0.66,2.5,0.66
			c0.95,0,1.78-0.22,2.5-0.66c0.72-0.44,1.28-1.04,1.68-1.8c0.4-0.76,0.6-1.63,0.6-2.61s-0.2-1.85-0.59-2.61
			c-0.39-0.76-0.95-1.36-1.67-1.8c-0.72-0.44-1.56-0.66-2.52-0.66c-0.95,0-1.78,0.22-2.5,0.66c-0.72,0.44-1.28,1.04-1.69,1.8
			c-0.41,0.76-0.61,1.63-0.61,2.61S393.47,434.54,393.88,435.3z"/>
		<path d="M416.36,425.02v10.11c0,0.88,0.23,1.58,0.69,2.12c0.46,0.53,1.14,0.8,2.05,0.8s1.59-0.27,2.05-0.8
			c0.46-0.53,0.69-1.24,0.69-2.12v-10.11h3.14v10.31c0,0.91-0.15,1.7-0.44,2.39c-0.29,0.69-0.71,1.26-1.24,1.73
			c-0.53,0.47-1.16,0.82-1.88,1.06c-0.72,0.24-1.49,0.36-2.33,0.36c-0.85,0-1.63-0.12-2.35-0.36s-1.34-0.6-1.86-1.06
			s-0.94-1.04-1.23-1.73c-0.29-0.69-0.44-1.48-0.44-2.39v-10.31H416.36z"/>
		<path d="M436.03,425.02v15.35h-3.14v-15.35H436.03z M434.81,425.02h3.05c1.21,0,2.25,0.2,3.1,0.59s1.51,0.96,1.96,1.69
			c0.45,0.73,0.68,1.6,0.68,2.61c0,0.99-0.23,1.86-0.68,2.6s-1.11,1.3-1.96,1.7c-0.86,0.4-1.89,0.59-3.1,0.59h-3.05v-2.65h3.05
			c0.83,0,1.49-0.19,1.97-0.57c0.48-0.38,0.72-0.94,0.72-1.67c0-0.75-0.24-1.3-0.72-1.68s-1.14-0.56-1.97-0.56h-3.05V425.02z"/>
	</g>
</g>
</svg>
