<svg width="640" height="480" xmlns="http://www.w3.org/2000/svg" xmlns:svg="http://www.w3.org/2000/svg">
 <title>Australia Perth Location Map</title>
 <g>
  <title>Layer 1</title>
  <g id="svg_4"/>
  <path stroke-width="0" stroke-dasharray="2,2" stroke="black" d="m444.87593,6.45814c0,0 2.96143,0.58614 2.96143,0.58614c0,0 -2.96143,-0.58614 -2.96143,-0.58614zm-1.18457,1.75842c0,0 1.77686,1.17228 1.77686,1.17228c0,0 0,-1.17228 0,-1.17228c0,0 -1.77686,0 -1.77686,0zm0.59229,6.44756c0,0 2.96143,-0.58614 2.96143,-0.58614c0,0 0.59229,-3.51685 0.59229,-3.51685c-2.96143,0.58614 -2.96143,1.17228 -3.55372,4.10299zm7.10744,-2.93071c0,0 0,1.75842 0,1.75842c-2.36915,0 -2.96143,0 -3.55372,2.34457c0,0 -4.14601,1.17228 -4.14601,1.17228c1.18457,6.44756 -2.36915,11.13669 -5.92287,16.41196c0,0 -2.36915,5.86141 -2.36915,5.86141c0,0 3.55372,0 3.55372,0c0,0 -3.55372,5.27527 -3.55372,5.27527c0,1.75842 0.59229,2.93071 0,5.27527c-0.59229,1.17228 -2.36915,3.51685 -2.36915,6.44756c0,2.34457 1.18457,2.93071 1.18457,4.68913c0,1.75842 -0.59229,2.34457 -0.59229,5.27527c0,0 0.59229,7.0337 0.59229,7.0337c0,0 -2.96143,8.20598 -2.96143,8.20598c-1.18457,4.10299 -0.59229,6.44756 -2.96143,11.13669c-1.18457,3.51685 -2.96143,4.10299 -4.14601,6.44756c0,0 -1.77686,4.10299 -1.77686,4.10299c-1.77686,3.51685 -7.10744,5.86141 -10.66116,5.27527c-1.18457,-0.58614 -4.73829,-2.93071 -5.92287,-3.51685c-2.96143,-1.75842 -5.33058,-1.75842 -5.92287,-5.86141c0,0 1.77686,-1.17228 1.77686,-1.17228c0,0 -2.96143,0 -2.96143,0c1.77686,-2.34457 2.36915,-2.93071 5.33058,-2.93071c0,0 4.14601,-2.93071 4.14601,-2.93071c0,0 0,-1.17228 0,-1.17228c-5.33058,-1.75842 -8.29201,0.58614 -9.47658,5.86141c0,0 -11.84573,-4.10299 -11.84573,-4.10299c0,0 -5.33058,-5.86141 -5.33058,-5.86141c0,0 -9.47658,-4.68913 -9.47658,-4.68913c1.18457,-2.34457 1.18457,-2.34457 0,-4.68913c0,0 -0.59229,0 -0.59229,0c0,0 -1.18457,1.17228 -1.18457,1.17228c0,0 0,-2.34457 0,-2.34457c0,0 -1.77686,2.34457 -1.77686,2.34457c0,0 -2.36915,0 -2.36915,0c0,0 0.59229,-2.34457 0.59229,-2.34457c0,0 -2.36915,1.75842 -2.36915,1.75842c0,0 -7.69972,-7.0337 -7.69972,-7.0337c0,0 -0.59229,-1.17228 -0.59229,-1.17228c-1.77686,0 -2.36915,0 -3.55372,-1.17228c-2.96143,-3.51685 2.36915,-8.79212 5.33058,-9.96441c0,0 2.36915,-8.20598 2.36915,-8.20598c0,0 -2.36915,1.17228 -2.36915,1.17228c0,0 -0.59229,-3.51685 -0.59229,-3.51685c0,0 4.73829,-1.75842 4.73829,-1.75842c0,0 1.77686,-1.75842 1.77686,-1.75842c0,0 -0.59229,2.34457 -0.59229,2.34457c0,0 5.33058,-4.10299 5.33058,-4.10299c-0.59229,-2.34457 -1.18457,-2.34457 0.59229,-4.10299c0,0 -0.59229,-1.75842 -0.59229,-1.75842c0,0 4.73829,-3.51685 4.73829,-3.51685c0,0 -2.36915,-3.51685 -2.36915,-3.51685c0,0 -2.96143,1.17228 -2.96143,1.17228c0,0 -1.18457,-5.27527 -1.18457,-5.27527c0,0 1.77686,-0.58614 1.77686,-0.58614c-2.36915,0 -5.33058,2.93071 -7.69972,4.10299c0,0 1.77686,0.58614 1.77686,0.58614c0,0 -1.18457,1.17228 -1.18457,1.17228c0,0 2.36915,0.58614 2.36915,0.58614c-1.18457,2.34457 -1.77686,2.34457 -4.14601,2.93071c0.59229,-1.75842 1.18457,-2.34457 0,-3.51685c0,0 0.59229,-1.75842 0.59229,-1.75842c0,0 -4.73829,2.34457 -4.73829,2.34457c0,0 -0.59229,-0.58614 -0.59229,-0.58614c0,0 3.55372,-2.93071 3.55372,-2.93071c0,0 -1.18457,-1.17228 -1.18457,-1.17228c0,0 4.14601,-4.68913 4.14601,-4.68913c0,0 -8.29201,7.0337 -8.29201,7.0337c-4.14601,0 -5.92287,2.93071 -7.10744,-1.17228c0,0 -1.77686,0.58614 -1.77686,0.58614c0,0 -1.18457,-1.75842 -1.18457,-1.75842c-6.51515,2.34457 -2.96143,0.58614 -8.29201,0.58614c-1.18457,-1.75842 -1.77686,-1.75842 -4.14601,-1.75842c0,0 1.18457,-1.17228 1.18457,-1.17228c0,0 0,-0.58614 0,-0.58614c0,0 -7.10744,0 -7.10744,0c0.59229,-1.17228 1.18457,-1.17228 0,-2.34457c0,0 1.18457,-1.75842 1.18457,-1.75842c-2.36915,1.17228 -2.36915,2.34457 -2.96143,2.93071c-1.77686,0 -3.55372,-3.51685 -4.73829,-4.68913c0,0 -3.55372,2.34457 -3.55372,2.34457c0,0 -0.59229,-7.61984 -0.59229,-7.61984c-1.77686,1.17228 -1.77686,1.17228 -2.36915,3.51685c0,0 -1.77686,-1.17228 -1.77686,-1.17228c0,0 -1.18457,1.17228 -1.18457,1.17228c-2.96143,-1.75842 -4.73829,-0.58614 -6.51515,1.75842c1.77686,1.17228 3.55372,2.34457 4.14601,4.10299c0,0 1.18457,-1.75842 1.18457,-1.75842c0,0 2.96143,0.58614 2.96143,0.58614c0,0 -0.59229,-1.17228 -0.59229,-1.17228c1.77686,1.17228 1.77686,1.17228 1.77686,3.51685c0,0 1.77686,0.58614 1.77686,0.58614c0,2.34457 0,5.27527 -3.55372,4.10299c0,0 -0.59229,1.75842 -0.59229,1.75842c0,0 -3.55372,0.58614 -3.55372,0.58614c0,0 -4.14601,0 -4.14601,0c0,0 -4.14601,-0.58614 -4.14601,-0.58614c0,0 -1.18457,-2.34457 -1.18457,-2.34457c0,0 -1.18457,2.34457 -1.18457,2.34457c0,0 -1.77686,-0.58614 -1.77686,-0.58614c0,0 0.59229,-1.75842 0.59229,-1.75842c-2.36915,0.58614 -2.36915,1.75842 -2.36915,4.10299c0,0 -2.36915,1.75842 -2.36915,1.75842c0,0 -2.96143,-1.17228 -2.96143,-1.17228c-0.59229,1.17228 -0.59229,2.34457 -2.36915,1.75842c-1.18457,2.34457 -1.18457,4.68913 -3.55372,5.27527c0,0 -2.36915,2.93071 -2.36915,2.93071c0,0 0,1.17228 0,1.17228c0,0 3.55372,1.17228 3.55372,1.17228c-2.36915,1.75842 -2.36915,2.34457 -5.33058,2.34457c0,0 -1.77686,7.0337 -1.77686,7.0337c0,0 -3.55372,1.17228 -3.55372,1.17228c0,0 -1.77686,5.27527 -1.77686,5.27527c0,0 3.55372,1.75842 3.55372,1.75842c0,0 1.18457,3.51685 1.18457,3.51685c0,0 -2.36915,-1.17228 -2.36915,-1.17228c-1.18457,1.75842 -1.77686,1.17228 -3.55372,0.58614c0,0 -0.59229,1.75842 -0.59229,1.75842c-2.36915,-1.17228 -7.10744,-2.93071 -10.06887,-1.75842c-1.18457,0 -2.96143,2.34457 -4.14601,2.93071c0,0 1.77686,-4.68913 1.77686,-4.68913c0,0 -4.14601,-1.17228 -4.14601,-1.17228c-1.18457,-3.51685 -5.92287,-9.96441 -10.06887,-8.79212c0,0 0,-1.17228 0,-1.17228c0,0 -1.18457,0.58614 -1.18457,0.58614c-1.77686,-2.34457 -2.96143,-2.34457 -5.33058,-1.17228c0,0 -1.18457,5.27527 -1.18457,5.27527c0,0 -1.77686,-2.34457 -1.77686,-2.34457c0,0 1.77686,-0.58614 1.77686,-0.58614c0,0 0,-1.17228 0,-1.17228c0,0 -1.77686,-0.58614 -1.77686,-0.58614c0,0 -0.59229,1.17228 -0.59229,1.17228c0,0 0.59229,0.58614 0.59229,0.58614c0,0 -3.55372,2.34457 -3.55372,2.34457c0,0 -0.59229,-3.51685 -0.59229,-3.51685c0,0 -2.36915,0 -2.36915,0c0,0 -0.59229,2.93071 -0.59229,2.93071c0,0 2.36915,1.17228 2.36915,1.17228c0,0 -1.77686,0 -1.77686,0c0,0 -0.59229,0.58614 -0.59229,0.58614c0,0 -0.59229,1.17228 -0.59229,1.17228c0,0 0,2.93071 0,2.93071c0,0 -2.96143,-5.27527 -2.96143,-5.27527c0,0 -3.55372,5.86141 -3.55372,5.86141c0,0 -1.77686,-2.34457 -1.77686,-2.34457c0,0 -0.59229,2.93071 -0.59229,2.93071c0,0 -0.59229,-2.34457 -0.59229,-2.34457c-2.96143,2.93071 -0.59229,3.51685 -0.59229,8.20598c0,0 -3.55372,-1.75842 -3.55372,-1.75842c0,0 -1.77686,1.75842 -1.77686,1.75842c0,0 1.77686,0 1.77686,0c0,0 -1.18457,3.51685 -1.18457,3.51685c0,0 -2.96143,0 -2.96143,0c0,0 0,-1.17228 0,-1.17228c0,0 -2.36915,0 -2.36915,0c0,0 -0.59229,1.75842 -0.59229,1.75842c0,0 -2.36915,0 -2.36915,0c1.77686,1.17228 1.77686,1.17228 3.55372,0c0,6.44756 -1.77686,1.17228 0,9.96441c0,0 2.36915,-1.17228 2.36915,-1.17228c0,0 -0.59229,2.34457 -0.59229,2.34457c-2.36915,0 -2.36915,0.58614 -2.96143,2.93071c0,0 -2.36915,-1.75842 -2.36915,-1.75842c-1.77686,0 -1.77686,0 -3.55372,-1.17228c0,0 -1.18457,0.58614 -1.18457,0.58614c0,0 0,-1.17228 0,-1.17228c0,0 -4.14601,0.58614 -4.14601,0.58614c0,0 -1.77686,-1.17228 -1.77686,-1.17228c0,0 -0.59229,2.34457 -0.59229,2.34457c0,0 3.55372,1.75842 3.55372,1.75842c-1.18457,1.17228 -3.55372,2.93071 -1.77686,4.10299c0,0 -0.59229,-1.17228 -0.59229,-1.17228c0,0 5.92287,5.86141 5.92287,5.86141c0,0 -2.96143,0 -2.96143,0c0,0 0,5.27527 0,5.27527c0,0 -0.59229,-1.75842 -0.59229,-1.75842c0,0 -0.59229,1.75842 -0.59229,1.75842c-1.77686,-2.93071 -4.14601,-5.86141 -4.73829,-9.37826c0,0 -2.36915,-0.58614 -2.36915,-0.58614c0,0 4.73829,-4.10299 4.73829,-4.10299c0,0 -4.73829,0 -4.73829,0c-2.36915,2.93071 -2.96143,2.93071 -4.14601,6.44756c0,0 -1.77686,1.75842 -1.77686,1.75842c-8.29201,3.51685 -3.55372,9.37826 -4.73829,15.23968c0,0 2.36915,-0.58614 2.36915,-0.58614c0,0 0.59229,2.34457 0.59229,2.34457c0,0 -7.69972,5.27527 -7.69972,5.27527c0,0 0,2.34457 0,2.34457c0,0 -2.36915,0.58614 -2.36915,0.58614c0,4.68913 -3.55372,9.37826 -7.10744,11.72283c-2.96143,2.34457 -13.62259,6.44756 -17.7686,7.0337c-2.96143,0.58614 -4.14601,-1.17228 -6.51515,0c-2.36915,0.58614 -2.96143,2.93071 -4.73829,4.10299c0,0 -10.66116,2.93071 -10.66116,2.93071c0,0 -1.18457,2.93071 -1.18457,2.93071c-4.14601,0.58614 -4.73829,2.93071 -7.69972,0c0,0 -5.33058,1.75842 -5.33058,1.75842c0,0 1.77686,-2.93071 1.77686,-2.93071c0,0 -1.77686,-1.75842 -1.77686,-1.75842c0,0 -1.18457,4.10299 -1.18457,4.10299c0,0 -2.36915,-2.34457 -2.36915,-2.34457c0,0 0,0.58614 0,0.58614c0,0 1.18457,0 1.18457,0c0,0 -2.36915,1.17228 -2.36915,1.17228c0,0 1.77686,0.58614 1.77686,0.58614c-2.96143,4.10299 -3.55372,2.34457 -7.10744,5.86141c-2.36915,1.75842 -5.33058,6.44756 -8.29201,7.0337c0,0 -8.29201,5.27527 -8.29201,5.27527c0,0 -5.33058,9.96441 -5.33058,9.96441c-1.77686,-7.0337 -1.77686,-2.93071 -1.18457,-9.96441c-1.18457,0.58614 -1.77686,1.17228 -2.96143,2.34457c-0.59229,1.17228 -2.96143,9.37826 -2.96143,10.55055c0,2.34457 1.77686,2.34457 1.77686,5.27527c0,0 0,6.44756 0,6.44756c-0.59229,2.34457 -3.55372,5.27527 -2.96143,11.72283c0,3.51685 1.18457,3.51685 2.96143,6.44756c0,0 1.77686,4.10299 1.77686,4.10299c0,0 4.73829,6.44756 4.73829,6.44756c1.18457,1.17228 2.96143,2.93071 3.55372,4.68913c0.59229,1.75842 0.59229,5.27527 0,7.0337c-1.77686,-2.34457 -2.36915,-3.51685 -2.96143,-6.44756c0,0 -1.77686,3.51685 -1.77686,3.51685c-1.18457,-5.27527 0,-3.51685 -4.73829,-9.37826c-1.77686,3.51685 -0.59229,5.86141 1.77686,8.79212c2.96143,2.93071 5.92287,2.93071 2.36915,7.0337c0,0 -4.14601,-8.20598 -4.14601,-8.20598c0,0 -2.36915,0.58614 -2.36915,0.58614c0,0 -3.55372,-7.0337 -3.55372,-7.0337c0,0 -1.18457,0 -1.18457,0c-0.59229,3.51685 1.18457,4.68913 2.96143,7.61984c0,0 3.55372,5.27527 3.55372,5.27527c0,0 4.14601,3.51685 4.14601,3.51685c1.77686,1.75842 2.96143,4.10299 4.73829,5.86141c4.73829,6.44756 1.77686,7.61984 4.14601,11.72283c1.18457,1.75842 3.55372,3.51685 5.33058,5.27527c1.18457,2.34457 1.18457,3.51685 2.36915,5.27527c1.18457,1.75842 2.96143,2.34457 4.14601,6.44756c0,0 1.18457,8.79212 1.18457,8.79212c0.59229,1.17228 2.96143,8.20598 3.55372,9.37826c0,0 5.33058,7.61984 5.33058,7.61984c2.36915,4.10299 5.33058,7.0337 3.55372,11.72283c2.36915,4.10299 0.59229,4.10299 0.59229,7.61984c0.59229,4.10299 2.96143,5.86141 0,9.96441c-0.59229,1.17228 -1.18457,1.75842 -2.36915,1.75842c-0.59229,0 -2.36915,-0.58614 -2.96143,-0.58614c0,5.27527 -0.59229,8.20598 2.96143,12.30897c4.73829,-2.93071 7.69972,2.34457 11.25344,4.10299c0,0 7.10744,2.34457 7.10744,2.34457c2.36915,0.58614 2.96143,-0.58614 6.51515,0c1.77686,-1.17228 2.96143,-0.58614 5.33058,0c0,0 4.73829,-1.17228 4.73829,-1.17228c0,0 4.73829,-2.34457 4.73829,-2.34457c0,0 -1.18457,-1.75842 -1.18457,-1.75842c2.96143,-2.34457 4.14601,-2.34457 5.33058,-5.86141c5.33058,1.17228 4.14601,0 8.29201,-1.17228c0,0 -1.77686,-1.17228 -1.77686,-1.17228c4.73829,-7.61984 6.51515,-4.68913 11.25344,-5.86141c0,0 4.73829,-1.75842 4.73829,-1.75842c5.33058,-0.58614 5.33058,0 9.47658,0c0,0 3.55372,-0.58614 3.55372,-0.58614c-1.18457,1.75842 -1.18457,2.34457 0.59229,3.51685c0,0 -1.18457,-2.34457 -1.18457,-2.34457c0,0 0.59229,0 0.59229,0c0,0 0.59229,1.17228 0.59229,1.17228c0,0 2.96143,-2.34457 2.96143,-2.34457c4.73829,1.17228 5.92287,-1.75842 8.8843,1.17228c0,0 2.36915,-1.75842 2.36915,-1.75842c7.10744,0 6.51515,-7.61984 9.47658,-11.72283c2.36915,-2.34457 4.73829,-1.75842 7.10744,-2.93071c0,0 13.62259,-8.20598 13.62259,-8.20598c2.36915,-1.17228 4.14601,0 6.51515,0c0,0 8.8843,-1.17228 8.8843,-1.17228c0,0 13.62259,-4.68913 13.62259,-4.68913c2.36915,-1.17228 4.14601,-2.34457 6.51515,-2.93071c5.33058,-1.75842 13.62259,-1.17228 18.95317,-1.17228c3.55372,0 4.73829,-1.17228 6.51515,-0.58614c4.14601,0 9.47658,5.86141 11.84573,6.44756c0.59229,0.58614 2.36915,0.58614 2.96143,0.58614c2.96143,-2.34457 4.73829,1.17228 7.69972,2.34457c1.77686,0.58614 4.14601,0 5.92287,0c0,0 -2.96143,2.93071 -2.96143,2.93071c0,0 4.73829,-1.75842 4.73829,-1.75842c0,0 0,4.10299 0,4.10299c2.96143,-0.58614 3.55372,-0.58614 4.73829,1.75842c0,0 -2.36915,0.58614 -2.36915,0.58614c0,0 0,2.93071 0,2.93071c0,0 1.18457,0 1.18457,0c0,0 -0.59229,1.75842 -0.59229,1.75842c0,0 1.77686,2.34457 1.77686,2.34457c0,0 4.73829,0 4.73829,0c0.59229,2.93071 1.18457,2.93071 0.59229,5.86141c4.73829,3.51685 5.33058,6.44756 5.92287,11.72283c0,0 -1.77686,-1.17228 -1.77686,-1.17228c0,0 -1.18457,2.93071 -1.18457,2.93071c0,0 1.77686,-0.58614 1.77686,-0.58614c0,0 3.55372,6.44756 3.55372,6.44756c0,0 2.96143,-1.75842 2.96143,-1.75842c0,0 0.59229,1.75842 0.59229,1.75842c0,0 1.18457,0 1.18457,0c0,0 1.18457,-5.86141 1.18457,-5.86141c0,0 0.59229,-2.93071 0.59229,-2.93071c0,0 5.92287,-4.68913 5.92287,-4.68913c0,0 7.69972,-4.10299 7.69972,-4.10299c0,0 5.33058,-8.79212 5.33058,-8.79212c0,0 2.36915,0.58614 2.36915,0.58614c0,0 1.18457,-3.51685 1.18457,-3.51685c-0.59229,2.34457 0,2.93071 1.18457,5.27527c-4.73829,1.75842 -1.77686,3.51685 -2.96143,5.86141c-0.59229,1.75842 -2.36915,2.93071 -4.14601,5.27527c-1.18457,2.93071 0,2.93071 -2.96143,7.61984c0,0 1.77686,-0.58614 1.77686,-0.58614c0,0 -1.18457,5.86141 -1.18457,5.86141c-4.73829,-1.75842 -5.33058,0 -7.10744,4.68913c0,0 6.51515,-1.17228 6.51515,-1.17228c0,0 3.55372,0 3.55372,0c0,0 1.77686,-3.51685 1.77686,-3.51685c0,0 3.55372,-9.37826 3.55372,-9.37826c2.36915,4.68913 5.92287,11.13669 1.77686,16.41196c-1.18457,1.17228 -2.36915,1.75842 -3.55372,2.34457c0,0 0,1.17228 0,1.17228c5.33058,1.75842 6.51515,-0.58614 8.8843,0c3.55372,1.75842 7.69972,8.79212 8.8843,12.30897c0,1.17228 0.59229,3.51685 0.59229,4.68913c-0.59229,1.17228 -1.18457,1.75842 -2.36915,2.34457c0.59229,3.51685 0.59229,6.44756 4.14601,8.79212c0,0 -0.59229,1.17228 -0.59229,1.17228c2.36915,2.34457 1.77686,4.10299 4.14601,5.86141c2.36915,1.75842 8.29201,1.75842 8.29201,6.44756c0,0 0.59229,0.58614 0.59229,0.58614c0,0 1.18457,0.58614 1.18457,0.58614c0,0 1.77686,-2.34457 1.77686,-2.34457c1.18457,0 8.29201,3.51685 9.47658,4.10299c2.36915,1.75842 6.51515,5.86141 9.47658,6.44756c4.14601,0.58614 10.06887,-7.0337 14.21488,-4.10299c0.59229,0.58614 1.18457,1.17228 1.77686,2.34457c0,0 3.55372,-1.17228 3.55372,-1.17228c0,0 -0.59229,1.75842 -0.59229,1.75842c3.55372,1.75842 6.51515,2.93071 7.10744,7.0337c0,0 2.36915,-1.17228 2.36915,-1.17228c0.59229,1.75842 1.77686,2.93071 0.59229,4.68913c0,0 3.55372,0 3.55372,0c0,0 0,-4.10299 0,-4.10299c7.10744,-0.58614 11.25344,-7.0337 18.36088,-8.79212c7.10744,-1.75842 13.62259,2.34457 17.7686,1.75842c1.77686,-0.58614 5.33058,-1.75842 6.51515,-3.51685c0.59229,-0.58614 0.59229,-1.17228 0.59229,-2.34457c0,0 1.18457,0.58614 1.18457,0.58614c0,-1.17228 0,-3.51685 0,-4.68913c0.59229,-2.34457 2.96143,-8.20598 5.33058,-8.79212c0,-1.17228 -0.59229,-1.75842 0,-2.93071c0,-2.34457 4.73829,-8.20598 6.51515,-9.96441c0,0 4.73829,-2.34457 4.73829,-2.34457c0,0 0,-2.34457 0,-2.34457c0,0 3.55372,-8.20598 3.55372,-8.20598c0,0 4.14601,-2.93071 4.14601,-2.93071c0,0 2.96143,-5.27527 2.96143,-5.27527c0,0 8.29201,-8.79212 8.29201,-8.79212c0,0 3.55372,-1.17228 3.55372,-1.17228c0,0 2.96143,-1.17228 2.96143,-1.17228c0.59229,-1.75842 1.18457,-1.75842 2.96143,-1.75842c0,0 1.77686,-5.27527 1.77686,-5.27527c0,0 6.51515,-8.20598 6.51515,-8.20598c0,0 2.96143,-5.86141 2.96143,-5.86141c0,0 1.18457,-5.86141 1.18457,-5.86141c0,0 2.36915,-4.10299 2.36915,-4.10299c0,0 2.96143,-5.86141 2.96143,-5.86141c0,0 2.96143,-8.20598 2.96143,-8.20598c0,0 4.73829,-5.86141 4.73829,-5.86141c0,0 1.18457,-8.20598 1.18457,-8.20598c0,0 -1.18457,-3.51685 -1.18457,-3.51685c0,0 2.36915,-6.44756 2.36915,-6.44756c0,0 1.18457,-7.61984 1.18457,-7.61984c0,0 -1.77686,1.17228 -1.77686,1.17228c0,0 -1.18457,6.44756 -1.18457,6.44756c-1.18457,-1.17228 -1.77686,-1.75842 -0.59229,-2.93071c0,0 -1.77686,0 -1.77686,0c0,0 -0.59229,-4.10299 -0.59229,-4.10299c0,0 1.77686,0.58614 1.77686,0.58614c1.18457,-7.0337 -0.59229,-9.96441 3.55372,-16.9981c-2.36915,-4.68913 2.36915,-8.20598 4.14601,-11.72283c0.59229,-1.75842 0.59229,-4.68913 0.59229,-6.44756c0,0 -2.96143,1.75842 -2.96143,1.75842c0.59229,3.51685 0,3.51685 -2.96143,5.27527c0,0 0.59229,2.34457 0.59229,2.34457c0,0 -4.73829,-4.10299 -4.73829,-4.10299c0,0 -1.77686,-6.44756 -1.77686,-6.44756c0,0 -3.55372,-3.51685 -3.55372,-3.51685c0,0 -4.14601,-8.20598 -4.14601,-8.20598c0,0 -4.14601,-1.75842 -4.14601,-1.75842c0,0 -0.59229,-7.0337 -0.59229,-7.0337c0,0 -2.36915,-1.17228 -2.36915,-1.17228c0,0 -2.36915,1.17228 -2.36915,1.17228c0,0 -0.59229,-6.44756 -0.59229,-6.44756c0,0 1.18457,-4.68913 1.18457,-4.68913c0.59229,-3.51685 -0.59229,-5.86141 -2.96143,-8.79212c0,0 -1.77686,1.75842 -1.77686,1.75842c0,0 1.77686,0.58614 1.77686,0.58614c0,0 -0.59229,2.34457 -0.59229,2.34457c0,0 -2.36915,-2.93071 -2.36915,-2.93071c0,0 -1.18457,0.58614 -1.18457,0.58614c0,0 -1.77686,-4.68913 -1.77686,-4.68913c0,0 -2.36915,-0.58614 -2.36915,-0.58614c0,0 -0.59229,4.68913 -0.59229,4.68913c0,0 -2.36915,-0.58614 -2.36915,-0.58614c0,0 -1.77686,-4.10299 -1.77686,-4.10299c0,0 0,-1.17228 0,-1.17228c0,0 1.18457,0 1.18457,0c0,0 -1.77686,-4.10299 -1.77686,-4.10299c0,0 1.18457,-3.51685 1.18457,-3.51685c0,0 -2.36915,-0.58614 -2.36915,-0.58614c0.59229,-1.75842 0.59229,-2.34457 0,-4.10299c-0.59229,-5.27527 -2.36915,-3.51685 -4.14601,-5.86141c-1.18457,-1.75842 -1.77686,-2.93071 -2.36915,-4.68913c0,0 1.18457,0 1.18457,0c0,0 0,-0.58614 0,-0.58614c0,0 1.77686,2.34457 1.77686,2.34457c0,0 0,-2.93071 0,-2.93071c0,0 1.77686,2.34457 1.77686,2.34457c0,0 1.18457,0 1.18457,0c0,0 0.59229,-0.58614 0.59229,-0.58614c0,0 -1.77686,-2.93071 -1.77686,-2.93071c0,0 1.77686,-1.17228 1.77686,-1.17228c0,0 -1.18457,0.58614 -1.18457,0.58614c0,0 0.59229,-1.75842 0.59229,-1.75842c0,0 -1.77686,0 -1.77686,0c0,0 -1.18457,-1.75842 -1.18457,-1.75842c0,0 0.59229,3.51685 0.59229,3.51685c0,0 -5.92287,-5.27527 -5.92287,-5.27527c0,0 -1.77686,2.34457 -1.77686,2.34457c-0.59229,-2.93071 -1.18457,-2.93071 -2.96143,-4.68913c0,0 -2.36915,0.58614 -2.36915,0.58614c0,0 0,-2.93071 0,-2.93071c0,0 -0.59229,-0.58614 -0.59229,-0.58614c0,0 -1.18457,0 -1.18457,0c0,0 -1.18457,1.75842 -1.18457,1.75842c-0.59229,-2.93071 -1.18457,-5.86141 -3.55372,-7.61984c-0.59229,2.34457 -2.96143,0.58614 -3.55372,-1.75842c0,0 -1.77686,1.17228 -1.77686,1.17228c0,0 -2.36915,-1.17228 -2.36915,-1.17228c0,0 1.77686,-1.75842 1.77686,-1.75842c-2.96143,0.58614 -7.10744,-1.17228 -7.10744,-4.68913c-0.59229,-1.17228 0.59229,-2.93071 0.59229,-4.68913c0,0 0,-4.10299 0,-4.10299c0,0 -4.14601,0.58614 -4.14601,0.58614c0,0 2.96143,-4.68913 2.96143,-4.68913c-1.77686,-0.58614 -0.59229,-2.34457 -0.59229,-4.10299c0,-1.75842 -1.77686,-7.61984 -2.36915,-9.37826c0,0 1.77686,0 1.77686,0c0,0 0,-1.17228 0,-1.17228c-4.73829,-1.75842 -5.92287,-4.10299 -7.69972,-8.20598c0,0 1.77686,-0.58614 1.77686,-0.58614c0,0 -2.36915,-12.89511 -2.36915,-12.89511c0,0 1.18457,-2.34457 1.18457,-2.34457c-0.59229,-1.75842 0,-2.34457 0.59229,-4.10299c0,0 -10.06887,-7.0337 -10.06887,-7.0337c0,0 -0.59229,-5.27527 -0.59229,-5.27527c0,0 -3.55372,2.34457 -3.55372,2.34457c0,0 0,-2.34457 0,-2.34457c-2.36915,1.75842 -2.96143,4.10299 -5.33058,4.10299c-1.77686,-0.58614 -2.36915,-4.10299 -2.96143,-5.86141c0,0 -1.18457,-4.10299 -1.18457,-4.10299c0,0 0.59229,-4.68913 0.59229,-4.68913c0,-2.93071 -1.77686,-2.34457 0,-8.20598c0,0 -2.96143,0 -2.96143,0c0,0 1.77686,-3.51685 1.77686,-3.51685c0,0 -4.73829,-4.10299 -4.73829,-4.10299c0.59229,-2.93071 0.59229,-2.93071 2.96143,-4.68913c-1.77686,-0.58614 -4.73829,-1.17228 -5.33058,-2.93071c-1.77686,-2.93071 1.18457,-9.37826 -4.14601,-12.89511c1.18457,-1.75842 1.77686,-2.34457 0.59229,-4.10299zm-168.80165,2.93071c0,4.68913 -3.55372,3.51685 -1.77686,8.20598c0,0 -1.77686,-0.58614 -1.77686,-0.58614c0,0 -1.18457,2.34457 -1.18457,2.34457c0,0 9.47658,0.58614 9.47658,0.58614c0,0 4.73829,0.58614 4.73829,0.58614c0,0 6.51515,-3.51685 6.51515,-3.51685c0,0 -0.59229,-1.75842 -0.59229,-1.75842c1.18457,-1.17228 0.59229,-1.75842 0,-3.51685c0,0 -1.77686,-1.17228 -1.77686,-1.17228c0,0 -8.8843,2.93071 -8.8843,2.93071c0,0 -4.73829,-4.10299 -4.73829,-4.10299zm87.6584,0c0,0 -4.73829,6.44756 -4.73829,6.44756c0,0 -5.33058,4.68913 -5.33058,4.68913c3.55372,-1.75842 10.66116,-5.86141 10.06887,-11.13669zm-10.06887,8.79212c0,0 0,0.58614 0,0.58614c0,0 -0.59229,-0.58614 -0.59229,-0.58614c0,0 0.59229,0 0.59229,0zm8.29201,2.34457c0,0 0,0.58614 0,0.58614c0,0 0.59229,-0.58614 0.59229,-0.58614c0,0 -0.59229,0 -0.59229,0zm-9.47658,0.58614c0,0 0,0.58614 0,0.58614c0,0 0.59229,-0.58614 0.59229,-0.58614c0,0 -0.59229,0 -0.59229,0zm-47.97521,2.93071c0,0 0,0.58614 0,0.58614c0,0 -0.59229,-0.58614 -0.59229,-0.58614c0,0 0.59229,0 0.59229,0zm49.15978,17.58424c0,0 -0.59229,1.17228 -0.59229,1.17228c0,0 0.59229,1.75842 0.59229,1.75842c0,0 2.96143,-1.17228 2.96143,-1.17228c0,0 -2.96143,-1.75842 -2.96143,-1.75842zm1.77686,2.93071c0,0 0,0.58614 0,0.58614c0,0 0.59229,-0.58614 0.59229,-0.58614c0,0 -0.59229,0 -0.59229,0zm-1.77686,4.10299c0,0 4.14601,0 4.14601,0c-0.59229,2.34457 0,2.93071 -1.77686,4.68913c0,0 9.47658,1.75842 9.47658,1.75842c0,0 0,-2.34457 0,-2.34457c0,0 -3.55372,0 -3.55372,0c0,0 1.18457,-2.93071 1.18457,-2.93071c0,0 1.77686,-2.93071 1.77686,-2.93071c0,0 -2.36915,1.17228 -2.36915,1.17228c0,0 0,-2.34457 0,-2.34457c-2.36915,0 -2.96143,0 -4.14601,2.34457c0,0 -0.59229,-0.58614 -0.59229,-0.58614c0,0 -1.18457,0.58614 -1.18457,0.58614c0,0 -0.59229,-2.34457 -0.59229,-2.34457c0,0 -2.36915,2.93071 -2.36915,2.93071zm3.55372,-2.34457c0,0 0,0.58614 0,0.58614c0,0 0.59229,-0.58614 0.59229,-0.58614c0,0 -0.59229,0 -0.59229,0zm-153.40221,8.20598c0,0 0,2.34457 0,2.34457c0,0 0,-2.34457 0,-2.34457zm261.19835,1.75842c0,0 0,0.58614 0,0.58614c0,0 0.59229,-0.58614 0.59229,-0.58614c0,0 -0.59229,0 -0.59229,0zm-216.18458,2.34457c0,0 0,0.58614 0,0.58614c0,0 0.59229,-0.58614 0.59229,-0.58614c0,0 -0.59229,0 -0.59229,0zm-47.97521,2.34457c0,0 -1.18457,1.17228 -1.18457,1.17228c0,0 0,0.58614 0,0.58614c0,0 2.36915,0 2.36915,0c0,0 -1.18457,-1.75842 -1.18457,-1.75842zm201.37741,25.20408c0,0 0,0.58614 0,0.58614c0,0 0.59229,-0.58614 0.59229,-0.58614c0,0 -0.59229,0 -0.59229,0zm-5.92287,9.37826c1.77686,-0.58614 2.36915,0 3.55372,-1.75842c0,0 -1.18457,-0.58614 -1.18457,-0.58614c-1.77686,0.58614 -1.77686,0.58614 -2.36915,2.34457zm94.17355,25.79023c-0.59229,2.34457 0,3.51685 2.36915,4.10299c0,0 -2.36915,-4.10299 -2.36915,-4.10299zm-408.0854,20.51495c0,0 -0.59229,2.93071 -0.59229,2.93071c0,0 0.59229,-2.93071 0.59229,-2.93071zm15.39945,2.93071c0,0 0,0.58614 0,0.58614c0,0 -0.59229,-0.58614 -0.59229,-0.58614c0,0 0.59229,0 0.59229,0zm-16.58402,1.17228c-1.18457,2.34457 -1.77686,2.93071 -1.18457,5.27527c1.77686,-1.75842 2.36915,-2.93071 1.18457,-5.27527zm11.25344,1.17228c0,0 0,0.58614 0,0.58614c0,0 0.59229,-0.58614 0.59229,-0.58614c0,0 -0.59229,0 -0.59229,0zm-8.29201,6.44756c0,0 0,0.58614 0,0.58614c0,0 0.59229,-0.58614 0.59229,-0.58614c0,0 -0.59229,0 -0.59229,0zm437.69973,1.17228c0,0 -0.59229,0.58614 -0.59229,0.58614c0,0 2.36915,1.17228 2.36915,1.17228c0,0 0,-1.17228 0,-1.17228c0,0 -1.77686,-0.58614 -1.77686,-0.58614zm8.29201,15.23968c0,0 0,0.58614 0,0.58614c0,0 0.59229,-0.58614 0.59229,-0.58614c0,0 -0.59229,0 -0.59229,0zm5.33058,1.75842c0,0 2.36915,0.58614 2.36915,0.58614c0,0 -2.36915,-0.58614 -2.36915,-0.58614zm-5.33058,4.10299c0,0 0,0.58614 0,0.58614c0,0 0.59229,-0.58614 0.59229,-0.58614c0,0 -0.59229,0 -0.59229,0zm11.25344,17.58424c0,0 0,0.58614 0,0.58614c0,0 0.59229,-0.58614 0.59229,-0.58614c0,0 -0.59229,0 -0.59229,0zm-484.49036,12.89511c0,0 0,7.61984 0,7.61984c0.59229,-2.34457 0.59229,-5.27527 0,-7.61984zm11.25344,12.89511c0,0 1.18457,1.75842 1.18457,1.75842c0,0 -1.18457,-1.75842 -1.18457,-1.75842zm226.84573,75.61225c0,0 0,0.58614 0,0.58614c0,0 0.59229,-0.58614 0.59229,-0.58614c0,0 -0.59229,0 -0.59229,0zm16.58402,5.27527c0,0 0,0.58614 0,0.58614c0,0 0.59229,-0.58614 0.59229,-0.58614c0,0 -0.59229,0 -0.59229,0zm-213.81543,2.93071c0,0 2.36915,0 2.36915,0c0,0 -2.36915,0 -2.36915,0zm222.69973,15.82582c0,0 1.77686,-1.75842 1.77686,-1.75842c0,0 -1.77686,1.75842 -1.77686,1.75842zm-133.26446,2.93071c0,0 0,0.58614 0,0.58614c0,0 0.59229,-0.58614 0.59229,-0.58614c0,0 -0.59229,0 -0.59229,0zm7.69972,0c0,0 0,0.58614 0,0.58614c0,0 0.59229,-0.58614 0.59229,-0.58614c0,0 -0.59229,0 -0.59229,0zm-3.55372,1.17228c0,0 0,0.58614 0,0.58614c0,0 0.59229,-0.58614 0.59229,-0.58614c0,0 -0.59229,0 -0.59229,0zm147.47934,12.30897c0,0 1.18457,2.34457 1.18457,2.34457c0,0 -1.18457,-2.34457 -1.18457,-2.34457zm5.33058,16.41196c0,0 9.47658,0 9.47658,0c0,0 1.18457,-1.75842 1.18457,-1.75842c0,0 5.92287,0 5.92287,0c0,0 -0.59229,-2.34457 -0.59229,-2.34457c0,0 -2.36915,1.17228 -2.36915,1.17228c0,0 -2.36915,-1.17228 -2.36915,-1.17228c0,0 0,-2.34457 0,-2.34457c-2.36915,0 -11.25344,0 -12.43802,2.34457c-0.59229,1.75842 0.59229,2.93071 1.18457,4.10299zm88.84298,35.75463c0.59229,3.51685 1.77686,5.27527 -2.96143,6.44756c0,0 -0.59229,-4.10299 -0.59229,-4.10299c0,0 -2.36915,0.58614 -2.36915,0.58614c0,0 5.92287,-2.93071 5.92287,-2.93071zm-33.76033,2.34457c0,0 0,0.58614 0,0.58614c0,0 0.59229,-0.58614 0.59229,-0.58614c0,0 -0.59229,0 -0.59229,0zm17.17631,19.92881c0,0 -0.59229,7.61984 -0.59229,7.61984c4.14601,-2.34457 4.14601,-4.10299 3.55372,-8.20598c0,0 -2.96143,0.58614 -2.96143,0.58614zm30.7989,2.93071c0,0 0,0.58614 0,0.58614c0,0 0.59229,-0.58614 0.59229,-0.58614c0,0 -0.59229,0 -0.59229,0zm7.10744,0.58614c0,0 -0.59229,0.58614 -0.59229,0.58614c0,0 1.77686,1.17228 1.77686,1.17228c0,0 -1.18457,-1.75842 -1.18457,-1.75842zm7.10744,4.68913c0,0 0,0.58614 0,0.58614c0,0 0.59229,-0.58614 0.59229,-0.58614c0,0 -0.59229,0 -0.59229,0zm-1.77686,0.58614c0,0 -1.77686,2.34457 -1.77686,2.34457c0,0 1.77686,4.68913 1.77686,4.68913c0,0 -1.18457,-0.58614 -1.18457,-0.58614c0,0 -1.77686,1.75842 -1.77686,1.75842c1.18457,0.58614 1.18457,0.58614 2.36915,-0.58614c0,0 1.77686,1.17228 1.77686,1.17228c0,0 -2.36915,1.17228 -2.36915,1.17228c0,0 1.18457,3.51685 1.18457,3.51685c0,0 4.73829,-1.17228 4.73829,-1.17228c-0.59229,-3.51685 -1.77686,-4.10299 0,-7.61984c0,0 -3.55372,-4.68913 -3.55372,-4.68913c0,0 -1.18457,0 -1.18457,0zm-34.9449,2.93071c-1.77686,2.93071 -3.55372,7.61984 -3.55372,11.13669c0,1.75842 1.18457,6.44756 1.77686,7.61984c0.59229,1.75842 1.77686,3.51685 1.77686,4.68913c0,0 -1.18457,8.79212 -1.18457,8.79212c0,0 4.14601,10.55055 4.14601,10.55055c0,0 1.18457,-0.58614 1.18457,-0.58614c0,0 0,4.10299 0,4.10299c4.73829,0 4.73829,1.75842 8.8843,2.93071c0,0 1.77686,-2.93071 1.77686,-2.93071c1.77686,1.75842 3.55372,1.75842 3.55372,-1.17228c0,0 1.77686,-0.58614 1.77686,-0.58614c0,0 -0.59229,-2.34457 -0.59229,-2.34457c0,0 2.96143,-0.58614 2.96143,-0.58614c0,0 -0.59229,3.51685 -0.59229,3.51685c0,0 0.59229,0.58614 0.59229,0.58614c0,0 2.96143,0.58614 2.96143,0.58614c0.59229,-2.93071 1.18457,-4.10299 0,-7.0337c2.36915,0 2.96143,0 3.55372,-2.34457c0,0 -1.77686,0.58614 -1.77686,0.58614c1.18457,-2.93071 1.18457,-4.68913 4.14601,-6.44756c0,0 -1.18457,3.51685 -1.18457,3.51685c2.96143,-1.17228 2.36915,-4.10299 2.96143,-7.0337c0.59229,-3.51685 2.36915,-8.20598 2.36915,-11.72283c0,0 -0.59229,-4.10299 -0.59229,-4.10299c0,0 -2.96143,1.17228 -2.96143,1.17228c0,0 -2.96143,-1.75842 -2.96143,-1.75842c0,0 -2.36915,2.93071 -2.36915,2.93071c-4.14601,-2.93071 -7.10744,0 -10.66116,-0.58614c-2.96143,-0.58614 -8.8843,-5.27527 -11.25344,-7.61984c0,0 -2.96143,0 -2.96143,0c0,0 0,-2.93071 0,-2.93071c0,0 -2.36915,1.17228 -2.36915,1.17228c0,0 2.96143,-4.10299 2.96143,-4.10299c0,0 -2.36915,0 -2.36915,0z" fill="#eaeaea" id="selection_to_path"/>
  <ellipse stroke="black" fill="#ed9eb5" cx="110.82634" cy="310.07943" id="svg_2" rx="8.8843" ry="8.20598"/>
 </g>
</svg>